<svg xmlns="http://www.w3.org/2000/svg" xmlns:xlink="http://www.w3.org/1999/xlink" width="2000" zoomAndPan="magnify" viewBox="0 0 1500 1499.999933" height="2000" preserveAspectRatio="xMidYMid meet" version="1.0"><defs><g/><clipPath id="ecf67b79b6"><path d="M 150 548.894531 L 552.210938 548.894531 L 552.210938 951.105469 L 150 951.105469 Z M 150 548.894531 " clip-rule="nonzero"/></clipPath><clipPath id="e6454f87a7"><path d="M 190.222656 548.894531 L 511.988281 548.894531 C 534.203125 548.894531 552.210938 566.902344 552.210938 589.117188 L 552.210938 910.882812 C 552.210938 933.097656 534.203125 951.105469 511.988281 951.105469 L 190.222656 951.105469 C 168.007812 951.105469 150 933.097656 150 910.882812 L 150 589.117188 C 150 566.902344 168.007812 548.894531 190.222656 548.894531 Z M 190.222656 548.894531 " clip-rule="nonzero"/></clipPath><clipPath id="4bef8c37e8"><path d="M 0 0.894531 L 402.210938 0.894531 L 402.210938 403.105469 L 0 403.105469 Z M 0 0.894531 " clip-rule="nonzero"/></clipPath><clipPath id="4a84decfd9"><path d="M 40.222656 0.894531 L 361.988281 0.894531 C 384.203125 0.894531 402.210938 18.902344 402.210938 41.117188 L 402.210938 362.882812 C 402.210938 385.097656 384.203125 403.105469 361.988281 403.105469 L 40.222656 403.105469 C 18.007812 403.105469 0 385.097656 0 362.882812 L 0 41.117188 C 0 18.902344 18.007812 0.894531 40.222656 0.894531 Z M 40.222656 0.894531 " clip-rule="nonzero"/></clipPath><clipPath id="22ab612ba8"><rect x="0" width="403" y="0" height="404"/></clipPath><clipPath id="59c4911b77"><path d="M 150 548.894531 L 552 548.894531 L 552 950.894531 L 150 950.894531 Z M 150 548.894531 " clip-rule="nonzero"/></clipPath><clipPath id="c0879ce25f"><path d="M 190.21875 548.894531 L 511.980469 548.894531 C 534.191406 548.894531 552.199219 566.902344 552.199219 589.113281 L 552.199219 910.875 C 552.199219 933.085938 534.191406 951.09375 511.980469 951.09375 L 190.21875 951.09375 C 168.007812 951.09375 150 933.085938 150 910.875 L 150 589.113281 C 150 566.902344 168.007812 548.894531 190.21875 548.894531 Z M 190.21875 548.894531 " clip-rule="nonzero"/></clipPath><clipPath id="3af29e387c"><path d="M 238.671875 723.117188 L 464.488281 723.117188 L 464.488281 778.703125 L 238.671875 778.703125 Z M 238.671875 723.117188 " clip-rule="nonzero"/></clipPath><clipPath id="d37b82be4c"><path d="M 442.277344 723.117188 C 454.542969 723.117188 464.488281 735.558594 464.488281 750.910156 C 464.488281 766.257812 454.542969 778.703125 442.277344 778.703125 L 260.882812 778.703125 C 248.617188 778.703125 238.671875 766.257812 238.671875 750.910156 C 238.671875 735.558594 248.617188 723.117188 260.882812 723.117188 Z M 442.277344 723.117188 " clip-rule="nonzero"/></clipPath><clipPath id="6729f43b54"><path d="M 0.671875 0.117188 L 226.488281 0.117188 L 226.488281 55.703125 L 0.671875 55.703125 Z M 0.671875 0.117188 " clip-rule="nonzero"/></clipPath><clipPath id="ecba7d6677"><path d="M 204.277344 0.117188 C 216.542969 0.117188 226.488281 12.558594 226.488281 27.910156 C 226.488281 43.257812 216.542969 55.703125 204.277344 55.703125 L 22.882812 55.703125 C 10.617188 55.703125 0.671875 43.257812 0.671875 27.910156 C 0.671875 12.558594 10.617188 0.117188 22.882812 0.117188 Z M 204.277344 0.117188 " clip-rule="nonzero"/></clipPath><clipPath id="eb6b710702"><rect x="0" width="227" y="0" height="56"/></clipPath><clipPath id="88c30d6f39"><path d="M 238.675781 723.117188 L 464.421875 723.117188 L 464.421875 778.617188 L 238.675781 778.617188 Z M 238.675781 723.117188 " clip-rule="nonzero"/></clipPath><clipPath id="1d263242d7"><path d="M 442.265625 723.117188 C 454.535156 723.117188 464.476562 735.558594 464.476562 750.90625 C 464.476562 766.257812 454.535156 778.699219 442.265625 778.699219 L 260.886719 778.699219 C 248.617188 778.699219 238.675781 766.257812 238.675781 750.90625 C 238.675781 735.558594 248.617188 723.117188 260.886719 723.117188 Z M 442.265625 723.117188 " clip-rule="nonzero"/></clipPath><clipPath id="8c789f4b75"><rect x="0" width="715" y="0" height="307"/></clipPath></defs><g clip-path="url(#ecf67b79b6)"><g clip-path="url(#e6454f87a7)"><g transform="matrix(1, 0, 0, 1, 150, 548)"><g clip-path="url(#22ab612ba8)"><g clip-path="url(#4bef8c37e8)"><g clip-path="url(#4a84decfd9)"><path fill="#ffffff" d="M 0 0.894531 L 402.210938 0.894531 L 402.210938 403.105469 L 0 403.105469 Z M 0 0.894531 " fill-opacity="1" fill-rule="nonzero"/></g></g></g></g></g></g><g clip-path="url(#59c4911b77)"><g clip-path="url(#c0879ce25f)"><path stroke-linecap="butt" transform="matrix(0.75, 0, 0, 0.75, 150.00002, 548.894693)" fill="none" stroke-linejoin="miter" d="M 53.624977 -0.000215296 L 482.640639 -0.000215296 C 512.255225 -0.000215296 536.265644 24.010203 536.265644 53.624789 L 536.265644 482.640451 C 536.265644 512.255037 512.255225 536.265456 482.640639 536.265456 L 53.624977 536.265456 C 24.010391 536.265456 -0.00002724 512.255037 -0.00002724 482.640451 L -0.00002724 53.624789 C -0.00002724 24.010203 24.010391 -0.000215296 53.624977 -0.000215296 Z M 53.624977 -0.000215296 " stroke="#000000" stroke-width="10" stroke-opacity="1" stroke-miterlimit="4"/></g></g><g clip-path="url(#3af29e387c)"><g clip-path="url(#d37b82be4c)"><g transform="matrix(1, 0, 0, 1, 238, 723)"><g clip-path="url(#eb6b710702)"><g clip-path="url(#6729f43b54)"><g clip-path="url(#ecba7d6677)"><path fill="#000000" d="M 0.671875 0.117188 L 226.488281 0.117188 L 226.488281 55.703125 L 0.671875 55.703125 Z M 0.671875 0.117188 " fill-opacity="1" fill-rule="nonzero"/></g></g></g></g></g></g><g clip-path="url(#88c30d6f39)"><g clip-path="url(#1d263242d7)"><path stroke-linecap="butt" transform="matrix(0.75, 0, 0, 0.75, 238.671999, 723.11711)" fill="none" stroke-linejoin="miter" d="M 271.458191 0.000103713 C 287.817568 0.000103713 301.072777 16.588647 301.072777 37.05219 C 301.072777 57.520942 287.817568 74.109485 271.458191 74.109485 L 29.619629 74.109485 C 13.260252 74.109485 0.00504274 57.520942 0.00504274 37.05219 C 0.00504274 16.588647 13.260252 0.000103713 29.619629 0.000103713 Z M 271.458191 0.000103713 " stroke="#000000" stroke-width="8" stroke-opacity="1" stroke-miterlimit="4"/></g></g><g transform="matrix(1, 0, 0, 1, 627, 599)"><g clip-path="url(#8c789f4b75)"><g fill="#000000" fill-opacity="1"><g transform="translate(0.770194, 245.769186)"><g><path d="M 13.96875 0 L 13.96875 -144.53125 L 45.742188 -144.53125 L 45.742188 -117.246094 L 40.167969 -117.246094 L 40.167969 -122.820312 L 41.976562 -122.820312 L 41.976562 -117.246094 L 36.785156 -119.273438 C 40.121094 -127.816406 45.523438 -134.480469 52.996094 -139.265625 C 60.363281 -143.980469 69.117188 -146.339844 79.25 -146.339844 C 89.554688 -146.339844 98.238281 -143.957031 105.300781 -139.191406 C 112.28125 -134.480469 117.707031 -127.945312 121.578125 -119.589844 L 116.523438 -117.246094 L 116.523438 -122.820312 L 117.96875 -122.820312 L 117.96875 -117.246094 L 112.976562 -119.722656 C 117.019531 -127.878906 123.070312 -134.363281 131.125 -139.175781 C 139.121094 -143.953125 148.609375 -146.339844 159.585938 -146.339844 C 173.527344 -146.339844 184.992188 -141.933594 193.976562 -133.121094 C 202.988281 -124.277344 207.496094 -110.90625 207.496094 -93 L 207.496094 5.574219 L 175 5.574219 L 175 -93 C 175 -101.445312 172.90625 -107.3125 168.71875 -110.601562 C 164.121094 -114.210938 158.664062 -116.015625 152.347656 -116.015625 C 144.214844 -116.015625 138.019531 -113.679688 133.757812 -109.011719 C 129.359375 -104.195312 127.160156 -98.011719 127.160156 -90.46875 L 127.160156 5.574219 L 94.304688 5.574219 L 94.304688 -95.171875 C 94.304688 -101.472656 92.320312 -106.503906 88.355469 -110.257812 C 84.300781 -114.097656 78.976562 -116.015625 72.375 -116.015625 C 67.878906 -116.015625 63.679688 -114.8125 59.78125 -112.410156 C 55.808594 -109.960938 52.59375 -106.546875 50.140625 -102.171875 C 47.691406 -97.800781 46.464844 -92.695312 46.464844 -86.847656 L 46.464844 5.574219 L 13.96875 5.574219 Z M 25.113281 0 L 19.542969 0 L 19.542969 -5.574219 L 40.890625 -5.574219 L 40.890625 0 L 35.320312 0 L 35.320312 -86.847656 C 35.320312 -94.636719 37.019531 -101.558594 40.417969 -107.621094 C 43.8125 -113.679688 48.320312 -118.4375 53.933594 -121.898438 C 59.625 -125.40625 65.773438 -127.160156 72.375 -127.160156 C 81.9375 -127.160156 89.816406 -124.226562 96.019531 -118.351562 C 102.304688 -112.398438 105.449219 -104.671875 105.449219 -95.171875 L 105.449219 0 L 99.875 0 L 99.875 -5.574219 L 121.589844 -5.574219 L 121.589844 0 L 116.015625 0 L 116.015625 -90.46875 C 116.015625 -100.894531 119.183594 -109.582031 125.523438 -116.523438 C 131.996094 -123.617188 140.9375 -127.160156 152.347656 -127.160156 C 161.230469 -127.160156 168.980469 -124.5625 175.601562 -119.367188 C 182.632812 -113.851562 186.148438 -105.0625 186.148438 -93 L 186.148438 0 L 180.574219 0 L 180.574219 -5.574219 L 201.925781 -5.574219 L 201.925781 0 L 196.351562 0 L 196.351562 -93 C 196.351562 -107.785156 192.957031 -118.507812 186.171875 -125.164062 C 179.351562 -131.851562 170.492188 -135.195312 159.585938 -135.195312 C 150.660156 -135.195312 143.078125 -133.332031 136.839844 -129.605469 C 130.664062 -125.914062 126.035156 -120.96875 122.964844 -114.769531 L 121.425781 -111.671875 L 112.960938 -111.671875 L 111.464844 -114.902344 C 108.464844 -121.382812 104.328125 -126.398438 99.066406 -129.953125 C 93.886719 -133.445312 87.28125 -135.195312 79.25 -135.195312 C 71.289062 -135.195312 64.542969 -133.421875 59.003906 -129.878906 C 53.570312 -126.398438 49.625 -121.511719 47.167969 -115.21875 L 45.785156 -111.671875 L 34.59375 -111.671875 L 34.59375 -138.957031 L 40.167969 -138.957031 L 40.167969 -133.386719 L 19.542969 -133.386719 L 19.542969 -138.957031 L 25.113281 -138.957031 Z M 25.113281 0 "/></g></g></g><g fill="#000000" fill-opacity="1"><g transform="translate(222.222451, 245.769186)"><g><path d="M 13.96875 0 L 13.96875 -144.53125 L 46.464844 -144.53125 L 46.464844 5.574219 L 13.96875 5.574219 Z M 25.113281 0 L 19.542969 0 L 19.542969 -5.574219 L 40.890625 -5.574219 L 40.890625 0 L 35.320312 0 L 35.320312 -138.957031 L 40.890625 -138.957031 L 40.890625 -133.386719 L 19.542969 -133.386719 L 19.542969 -138.957031 L 25.113281 -138.957031 Z M 30.398438 -156.546875 C 24.753906 -156.546875 19.898438 -158.472656 15.839844 -162.328125 C 11.695312 -166.261719 9.625 -171.015625 9.625 -176.59375 C 9.625 -182.167969 11.695312 -186.925781 15.839844 -190.855469 C 19.898438 -194.714844 24.753906 -196.640625 30.398438 -196.640625 C 36.042969 -196.640625 40.894531 -194.714844 44.953125 -190.855469 C 49.097656 -186.925781 51.167969 -182.167969 51.167969 -176.59375 C 51.167969 -171.015625 49.097656 -166.261719 44.953125 -162.328125 C 40.894531 -158.472656 36.042969 -156.546875 30.398438 -156.546875 Z M 30.398438 -167.691406 C 33.074219 -167.691406 35.371094 -168.597656 37.28125 -170.410156 C 39.109375 -172.148438 40.023438 -174.207031 40.023438 -176.59375 C 40.023438 -178.976562 39.109375 -181.039062 37.28125 -182.773438 C 35.371094 -184.589844 33.074219 -185.496094 30.398438 -185.496094 C 27.71875 -185.496094 25.425781 -184.589844 23.515625 -182.773438 C 21.6875 -181.039062 20.773438 -178.976562 20.773438 -176.59375 C 20.773438 -174.207031 21.6875 -172.148438 23.515625 -170.410156 C 25.425781 -168.597656 27.71875 -167.691406 30.398438 -167.691406 Z M 30.398438 -167.691406 "/></g></g></g><g fill="#000000" fill-opacity="1"><g transform="translate(282.651426, 245.769186)"><g><path d="M 46.464844 -83.59375 L 46.464844 5.574219 L 13.96875 5.574219 L 13.96875 -144.53125 L 45.742188 -144.53125 L 45.742188 -117.246094 L 40.167969 -117.246094 L 40.167969 -122.820312 L 41.976562 -122.820312 L 41.976562 -117.246094 L 36.917969 -119.582031 C 40.625 -127.613281 46.242188 -134.074219 53.777344 -138.972656 C 61.335938 -143.882812 70.910156 -146.339844 82.507812 -146.339844 C 98.09375 -146.339844 110.757812 -141.488281 120.5 -131.777344 C 130.25 -122.066406 135.121094 -107.570312 135.121094 -88.296875 L 135.121094 5.574219 L 102.625 5.574219 L 102.625 -86.847656 C 102.625 -96.308594 100.285156 -103.566406 95.605469 -108.621094 C 91.039062 -113.550781 84.621094 -116.015625 76.355469 -116.015625 C 67.679688 -116.015625 60.523438 -113.246094 54.882812 -107.707031 C 49.269531 -102.195312 46.464844 -94.15625 46.464844 -83.59375 Z M 35.320312 -83.59375 C 35.320312 -97.273438 39.238281 -107.960938 47.074219 -115.660156 C 54.882812 -123.328125 64.644531 -127.160156 76.355469 -127.160156 C 87.867188 -127.160156 97.011719 -123.503906 103.785156 -116.191406 C 110.441406 -109.003906 113.773438 -99.222656 113.773438 -86.847656 L 113.773438 0 L 108.199219 0 L 108.199219 -5.574219 L 129.550781 -5.574219 L 129.550781 0 L 123.976562 0 L 123.976562 -88.296875 C 123.976562 -104.484375 120.195312 -116.347656 112.632812 -123.882812 C 105.066406 -131.425781 95.023438 -135.195312 82.507812 -135.195312 C 73.113281 -135.195312 65.5625 -133.339844 59.851562 -129.625 C 54.117188 -125.898438 49.84375 -120.992188 47.039062 -114.910156 L 45.542969 -111.671875 L 34.59375 -111.671875 L 34.59375 -138.957031 L 40.167969 -138.957031 L 40.167969 -133.386719 L 19.542969 -133.386719 L 19.542969 -138.957031 L 25.113281 -138.957031 L 25.113281 0 L 19.542969 0 L 19.542969 -5.574219 L 40.890625 -5.574219 L 40.890625 0 L 35.320312 0 Z M 35.320312 -83.59375 "/></g></g></g><g fill="#000000" fill-opacity="1"><g transform="translate(431.733694, 245.769186)"><g><path d="M 101.539062 -56.8125 L 101.539062 -144.53125 L 134.039062 -144.53125 L 134.039062 5.574219 L 101.539062 5.574219 L 101.539062 -23.523438 L 107.113281 -23.523438 L 107.113281 -17.949219 L 105.667969 -17.949219 L 105.667969 -23.523438 L 110.726562 -21.1875 C 107.058594 -13.238281 101.386719 -6.519531 93.707031 -1.03125 C 85.863281 4.578125 76.097656 7.382812 64.414062 7.382812 C 49.824219 7.382812 37.761719 2.511719 28.222656 -7.230469 C 18.71875 -16.9375 13.96875 -31.414062 13.96875 -50.660156 L 13.96875 -144.53125 L 46.464844 -144.53125 L 46.464844 -52.109375 C 46.464844 -43.453125 48.808594 -36.648438 53.492188 -31.691406 C 58.089844 -26.824219 64.023438 -24.390625 71.289062 -24.390625 C 75.730469 -24.390625 80.324219 -25.554688 85.066406 -27.890625 C 89.695312 -30.164062 93.617188 -33.695312 96.835938 -38.480469 C 99.972656 -43.152344 101.539062 -49.261719 101.539062 -56.8125 Z M 112.6875 -56.8125 C 112.6875 -46.996094 110.484375 -38.8125 106.085938 -32.265625 C 101.761719 -25.832031 96.394531 -21.039062 89.988281 -17.886719 C 83.691406 -14.792969 77.460938 -13.246094 71.289062 -13.246094 C 60.820312 -13.246094 52.1875 -16.839844 45.390625 -24.035156 C 38.675781 -31.140625 35.320312 -40.5 35.320312 -52.109375 L 35.320312 -138.957031 L 40.890625 -138.957031 L 40.890625 -133.386719 L 19.542969 -133.386719 L 19.542969 -138.957031 L 25.113281 -138.957031 L 25.113281 -50.660156 C 25.113281 -34.445312 28.804688 -22.566406 36.1875 -15.027344 C 43.539062 -7.519531 52.949219 -3.761719 64.414062 -3.761719 C 73.714844 -3.761719 81.320312 -5.875 87.226562 -10.097656 C 93.300781 -14.441406 97.761719 -19.695312 100.605469 -25.855469 L 102.101562 -29.09375 L 112.6875 -29.09375 L 112.6875 0 L 107.113281 0 L 107.113281 -5.574219 L 128.464844 -5.574219 L 128.464844 0 L 122.890625 0 L 122.890625 -138.957031 L 128.464844 -138.957031 L 128.464844 -133.386719 L 107.113281 -133.386719 L 107.113281 -138.957031 L 112.6875 -138.957031 Z M 112.6875 -56.8125 "/></g></g></g><g fill="#000000" fill-opacity="1"><g transform="translate(579.730362, 245.769186)"><g><path d="M 119.488281 -102.476562 L 95.425781 -95.664062 L 93.59375 -100.394531 C 92.023438 -104.453125 89.332031 -108.304688 85.523438 -111.957031 C 82.199219 -115.144531 76.609375 -116.738281 68.753906 -116.738281 C 61.410156 -116.738281 55.390625 -115.121094 50.707031 -111.890625 C 48.582031 -110.425781 47.023438 -108.828125 46.035156 -107.09375 C 45.113281 -105.488281 44.65625 -103.683594 44.65625 -101.6875 C 44.65625 -99.847656 44.96875 -98.25 45.589844 -96.890625 C 46.1875 -95.597656 47.105469 -94.457031 48.34375 -93.46875 C 51.574219 -90.894531 56.898438 -88.683594 64.316406 -86.828125 L 84.921875 -81.765625 C 98.25 -78.5 108.363281 -73.351562 115.253906 -66.324219 C 122.46875 -58.96875 126.074219 -49.765625 126.074219 -38.71875 C 126.074219 -29.550781 123.445312 -21.34375 118.183594 -14.097656 C 113.042969 -7.015625 105.945312 -1.464844 96.894531 2.558594 C 88.03125 6.5 77.808594 8.46875 66.222656 8.46875 C 50.929688 8.46875 38.175781 5.082031 27.953125 -1.6875 C 17.390625 -8.679688 10.71875 -18.835938 7.933594 -32.152344 L 6.835938 -37.398438 L 37.6875 -45.113281 L 39.054688 -39.730469 C 40.613281 -33.59375 43.507812 -29.050781 47.742188 -26.105469 C 52.152344 -23.03125 58.191406 -21.496094 65.859375 -21.496094 C 74.609375 -21.496094 81.4375 -23.269531 86.34375 -26.816406 C 88.636719 -28.476562 90.320312 -30.238281 91.394531 -32.101562 C 92.367188 -33.796875 92.855469 -35.640625 92.855469 -37.632812 C 92.855469 -40.953125 91.71875 -43.691406 89.441406 -45.847656 C 86.734375 -48.410156 82.433594 -50.378906 76.539062 -51.746094 L 53.371094 -57.175781 C 39.542969 -60.453125 29.277344 -65.683594 22.570312 -72.867188 C 15.628906 -80.300781 12.160156 -89.546875 12.160156 -100.601562 C 12.160156 -109.660156 14.734375 -117.695312 19.890625 -124.707031 C 24.90625 -131.53125 31.703125 -136.859375 40.289062 -140.699219 C 48.703125 -144.460938 58.191406 -146.339844 68.753906 -146.339844 C 83.765625 -146.339844 95.707031 -142.941406 104.578125 -136.144531 C 113.351562 -129.421875 119.574219 -120.578125 123.253906 -109.609375 L 125.113281 -104.066406 Z M 116.453125 -113.199219 L 117.96875 -107.835938 L 112.6875 -106.066406 C 109.730469 -114.878906 104.769531 -121.957031 97.796875 -127.296875 C 90.929688 -132.5625 81.246094 -135.195312 68.753906 -135.195312 C 59.777344 -135.195312 51.804688 -133.636719 44.839844 -130.523438 C 38.046875 -127.484375 32.722656 -123.347656 28.871094 -118.105469 C 25.160156 -113.058594 23.304688 -107.222656 23.304688 -100.601562 C 23.304688 -92.476562 25.773438 -85.765625 30.714844 -80.476562 C 35.890625 -74.933594 44.289062 -70.785156 55.914062 -68.03125 L 79.0625 -62.605469 C 86.921875 -60.777344 92.933594 -57.890625 97.105469 -53.9375 C 101.703125 -49.582031 104.003906 -44.148438 104.003906 -37.632812 C 104.003906 -33.65625 103.019531 -29.960938 101.054688 -26.542969 C 99.1875 -23.296875 96.460938 -20.378906 92.875 -17.785156 C 86.019531 -12.828125 77.015625 -10.347656 65.859375 -10.347656 C 55.859375 -10.347656 47.695312 -12.550781 41.371094 -16.957031 C 34.867188 -21.488281 30.492188 -28.164062 28.253906 -36.984375 L 33.652344 -38.359375 L 35.003906 -32.953125 L 14.742188 -27.886719 L 13.390625 -33.292969 L 18.84375 -34.433594 C 21.003906 -24.105469 26.09375 -16.289062 34.109375 -10.980469 C 42.464844 -5.445312 53.167969 -2.679688 66.222656 -2.679688 C 76.230469 -2.679688 84.945312 -4.328125 92.367188 -7.625 C 99.597656 -10.839844 105.195312 -15.179688 109.164062 -20.644531 C 113.007812 -25.941406 114.929688 -31.964844 114.929688 -38.71875 C 114.929688 -46.730469 112.386719 -53.332031 107.296875 -58.519531 C 101.886719 -64.039062 93.539062 -68.179688 82.261719 -70.941406 L 61.613281 -76.015625 C 52.628906 -78.261719 45.890625 -81.171875 41.398438 -84.753906 C 38.777344 -86.839844 36.800781 -89.332031 35.46875 -92.230469 C 34.160156 -95.066406 33.507812 -98.21875 33.507812 -101.6875 C 33.507812 -105.660156 34.460938 -109.304688 36.359375 -112.628906 C 38.1875 -115.828125 40.859375 -118.640625 44.375 -121.066406 C 50.96875 -125.613281 59.09375 -127.886719 68.753906 -127.886719 C 79.597656 -127.886719 87.757812 -125.257812 93.238281 -120.003906 C 98.238281 -115.210938 101.820312 -110.015625 103.988281 -104.421875 L 98.789062 -102.410156 L 97.273438 -107.773438 Z M 116.453125 -113.199219 "/></g></g></g><g fill="#ffffff" fill-opacity="1"><g transform="translate(0.770194, 245.769186)"><g><path d="M 19.546875 0 L 19.546875 -138.953125 L 40.171875 -138.953125 L 40.171875 -117.25 L 41.96875 -117.25 C 44.863281 -124.664062 49.535156 -130.4375 55.984375 -134.5625 C 62.441406 -138.695312 70.195312 -140.765625 79.25 -140.765625 C 88.414062 -140.765625 96.054688 -138.695312 102.171875 -134.5625 C 108.296875 -130.4375 113.078125 -124.664062 116.515625 -117.25 L 117.96875 -117.25 C 121.519531 -124.425781 126.851562 -130.140625 133.96875 -134.390625 C 141.09375 -138.640625 149.628906 -140.765625 159.578125 -140.765625 C 172.003906 -140.765625 182.164062 -136.890625 190.0625 -129.140625 C 197.96875 -121.390625 201.921875 -109.34375 201.921875 -93 L 201.921875 0 L 180.5625 0 L 180.5625 -93 C 180.5625 -103.25 177.757812 -110.570312 172.15625 -114.96875 C 166.550781 -119.375 159.945312 -121.578125 152.34375 -121.578125 C 142.570312 -121.578125 135 -118.632812 129.625 -112.75 C 124.257812 -106.875 121.578125 -99.445312 121.578125 -90.46875 L 121.578125 0 L 99.875 0 L 99.875 -95.171875 C 99.875 -103.066406 97.3125 -109.441406 92.1875 -114.296875 C 87.0625 -119.148438 80.457031 -121.578125 72.375 -121.578125 C 66.820312 -121.578125 61.648438 -120.097656 56.859375 -117.140625 C 52.066406 -114.191406 48.207031 -110.109375 45.28125 -104.890625 C 42.351562 -99.671875 40.890625 -93.65625 40.890625 -86.84375 L 40.890625 0 Z M 19.546875 0 "/></g></g></g><g fill="#ffffff" fill-opacity="1"><g transform="translate(222.222451, 245.769186)"><g><path d="M 19.546875 0 L 19.546875 -138.953125 L 40.890625 -138.953125 L 40.890625 0 Z M 30.390625 -162.109375 C 26.234375 -162.109375 22.660156 -163.523438 19.671875 -166.359375 C 16.691406 -169.203125 15.203125 -172.613281 15.203125 -176.59375 C 15.203125 -180.570312 16.691406 -183.976562 19.671875 -186.8125 C 22.660156 -189.644531 26.234375 -191.0625 30.390625 -191.0625 C 34.554688 -191.0625 38.128906 -189.644531 41.109375 -186.8125 C 44.097656 -183.976562 45.59375 -180.570312 45.59375 -176.59375 C 45.59375 -172.613281 44.097656 -169.203125 41.109375 -166.359375 C 38.128906 -163.523438 34.554688 -162.109375 30.390625 -162.109375 Z M 30.390625 -162.109375 "/></g></g></g><g fill="#ffffff" fill-opacity="1"><g transform="translate(282.651426, 245.769186)"><g><path d="M 40.890625 -83.59375 L 40.890625 0 L 19.546875 0 L 19.546875 -138.953125 L 40.171875 -138.953125 L 40.171875 -117.25 L 41.96875 -117.25 C 45.226562 -124.300781 50.175781 -129.984375 56.8125 -134.296875 C 63.445312 -138.609375 72.007812 -140.765625 82.5 -140.765625 C 96.550781 -140.765625 107.90625 -136.453125 116.5625 -127.828125 C 125.21875 -119.203125 129.546875 -106.023438 129.546875 -88.296875 L 129.546875 0 L 108.203125 0 L 108.203125 -86.84375 C 108.203125 -97.757812 105.363281 -106.273438 99.6875 -112.390625 C 94.019531 -118.515625 86.242188 -121.578125 76.359375 -121.578125 C 66.160156 -121.578125 57.695312 -118.273438 50.96875 -111.671875 C 44.25 -105.078125 40.890625 -95.71875 40.890625 -83.59375 Z M 40.890625 -83.59375 "/></g></g></g><g fill="#ffffff" fill-opacity="1"><g transform="translate(431.733694, 245.769186)"><g><path d="M 107.109375 -56.8125 L 107.109375 -138.953125 L 128.453125 -138.953125 L 128.453125 0 L 107.109375 0 L 107.109375 -23.515625 L 105.65625 -23.515625 C 102.40625 -16.460938 97.34375 -10.476562 90.46875 -5.5625 C 83.59375 -0.644531 74.90625 1.8125 64.40625 1.8125 C 51.382812 1.8125 40.648438 -2.5 32.203125 -11.125 C 23.765625 -19.75 19.546875 -32.925781 19.546875 -50.65625 L 19.546875 -138.953125 L 40.890625 -138.953125 L 40.890625 -52.109375 C 40.890625 -41.972656 43.738281 -33.890625 49.4375 -27.859375 C 55.132812 -21.828125 62.414062 -18.8125 71.28125 -18.8125 C 76.59375 -18.8125 82.003906 -20.164062 87.515625 -22.875 C 93.035156 -25.59375 97.679688 -29.753906 101.453125 -35.359375 C 105.222656 -40.972656 107.109375 -48.125 107.109375 -56.8125 Z M 107.109375 -56.8125 "/></g></g></g><g fill="#ffffff" fill-opacity="1"><g transform="translate(579.730362, 245.769186)"><g><path d="M 117.96875 -107.828125 L 98.78125 -102.40625 C 96.914062 -107.226562 93.78125 -111.75 89.375 -115.96875 C 84.976562 -120.195312 78.101562 -122.3125 68.75 -122.3125 C 60.25 -122.3125 53.175781 -120.363281 47.53125 -116.46875 C 41.894531 -112.582031 39.078125 -107.65625 39.078125 -101.6875 C 39.078125 -96.375 41.003906 -92.179688 44.859375 -89.109375 C 48.722656 -86.035156 54.757812 -83.472656 62.96875 -81.421875 L 83.59375 -76.359375 C 108.195312 -70.328125 120.5 -57.78125 120.5 -38.71875 C 120.5 -30.757812 118.222656 -23.644531 113.671875 -17.375 C 109.117188 -11.101562 102.769531 -6.15625 94.625 -2.53125 C 86.476562 1.082031 77.007812 2.890625 66.21875 2.890625 C 52.050781 2.890625 40.320312 -0.179688 31.03125 -6.328125 C 21.738281 -12.484375 15.859375 -21.472656 13.390625 -33.296875 L 33.65625 -38.359375 C 37.457031 -23.398438 48.191406 -15.921875 65.859375 -15.921875 C 75.804688 -15.921875 83.71875 -18.046875 89.59375 -22.296875 C 95.476562 -26.546875 98.421875 -31.660156 98.421875 -37.640625 C 98.421875 -47.460938 91.546875 -53.972656 77.796875 -57.171875 L 54.640625 -62.609375 C 41.910156 -65.617188 32.578125 -70.304688 26.640625 -76.671875 C 20.703125 -83.035156 17.734375 -91.007812 17.734375 -100.59375 C 17.734375 -108.4375 19.945312 -115.375 24.375 -121.40625 C 28.8125 -127.4375 34.875 -132.171875 42.5625 -135.609375 C 50.25 -139.046875 58.976562 -140.765625 68.75 -140.765625 C 82.5 -140.765625 93.304688 -137.75 101.171875 -131.71875 C 109.046875 -125.6875 114.644531 -117.722656 117.96875 -107.828125 Z M 117.96875 -107.828125 "/></g></g></g></g></g></svg>